# xmcd
#
# Track frame offsets:
# 150
# 23114
# 42448
# 62103
# 83271
# 99713
# 124103
# 163326
#
# Disc length: 2463 seconds
#
# Revision: 0
# Processed by: cddbd v1.4PL0 Copyright (c) Steve Scherf et al.
# Submitted via: Axialis_AX_CDPlayer 2.6
#
DISCID=62099d08
DTITLE=Gale Trippsmith - Come Down
DYEAR=1900
DGENRE=
TTITLE0=Come Down
TTITLE1=Out of Focus
TTITLE2=Stranger
TTITLE3=Glances
TTITLE4=Except for Love
TTITLE5=When Will Lightning strike
TTITLE6=Cradle
TTITLE7=(data)
EXTD=
EXTT0=
EXTT1=
EXTT2=
EXTT3=
EXTT4=
EXTT5=
EXTT6=
EXTT7=
PLAYORDER=
